<svg width="27" height="22" viewBox="0 0 27 22" fill="none" xmlns="http://www.w3.org/2000/svg">
<mask id="path-1-outside-1_5024_6273" maskUnits="userSpaceOnUse" x="0" y="0" width="27" height="22" fill="black">
<rect fill="white" width="27" height="22"/>
<path fill-rule="evenodd" clip-rule="evenodd" d="M13.5 6C13.5 8.20914 11.7091 10 9.5 10C7.29086 10 5.5 8.20914 5.5 6C5.5 3.79086 7.29086 2 9.5 2C11.7091 2 13.5 3.79086 13.5 6ZM17 18V20H2V18C2 16.9391 2.42143 15.9217 3.17157 15.1716C3.92172 14.4214 4.93913 14 6 14H13C14.0609 14 15.0783 14.4214 15.8284 15.1716C16.5786 15.9217 17 16.9391 17 18ZM18.2929 6.29289C18.6834 5.90237 19.3166 5.90237 19.7071 6.29289L21.5 8.08579L23.2929 6.29289C23.6834 5.90237 24.3166 5.90237 24.7071 6.29289C25.0976 6.68342 25.0976 7.31658 24.7071 7.70711L22.9142 9.5L24.7071 11.2929C25.0976 11.6834 25.0976 12.3166 24.7071 12.7071C24.3166 13.0976 23.6834 13.0976 23.2929 12.7071L21.5 10.9142L19.7071 12.7071C19.3166 13.0976 18.6834 13.0976 18.2929 12.7071C17.9024 12.3166 17.9024 11.6834 18.2929 11.2929L20.0858 9.5L18.2929 7.70711C17.9024 7.31658 17.9024 6.68342 18.2929 6.29289Z"/>
</mask>
<path fill-rule="evenodd" clip-rule="evenodd" d="M13.5 6C13.5 8.20914 11.7091 10 9.5 10C7.29086 10 5.5 8.20914 5.5 6C5.5 3.79086 7.29086 2 9.5 2C11.7091 2 13.5 3.79086 13.5 6ZM17 18V20H2V18C2 16.9391 2.42143 15.9217 3.17157 15.1716C3.92172 14.4214 4.93913 14 6 14H13C14.0609 14 15.0783 14.4214 15.8284 15.1716C16.5786 15.9217 17 16.9391 17 18ZM18.2929 6.29289C18.6834 5.90237 19.3166 5.90237 19.7071 6.29289L21.5 8.08579L23.2929 6.29289C23.6834 5.90237 24.3166 5.90237 24.7071 6.29289C25.0976 6.68342 25.0976 7.31658 24.7071 7.70711L22.9142 9.5L24.7071 11.2929C25.0976 11.6834 25.0976 12.3166 24.7071 12.7071C24.3166 13.0976 23.6834 13.0976 23.2929 12.7071L21.5 10.9142L19.7071 12.7071C19.3166 13.0976 18.6834 13.0976 18.2929 12.7071C17.9024 12.3166 17.9024 11.6834 18.2929 11.2929L20.0858 9.5L18.2929 7.70711C17.9024 7.31658 17.9024 6.68342 18.2929 6.29289Z" fill="#B3261E"/>
<path d="M17 20V22C18.1046 22 19 21.1046 19 20H17ZM2 20H0C0 21.1046 0.895431 22 2 22L2 20ZM3.17157 15.1716L4.58579 16.5858L4.58579 16.5858L3.17157 15.1716ZM15.8284 15.1716L14.4142 16.5858L14.4142 16.5858L15.8284 15.1716ZM19.7071 6.29289L21.1213 4.87868L21.1213 4.87868L19.7071 6.29289ZM18.2929 6.29289L16.8787 4.87868L16.8787 4.87868L18.2929 6.29289ZM21.5 8.08579L20.0858 9.5C20.8668 10.281 22.1332 10.281 22.9142 9.5L21.5 8.08579ZM23.2929 6.29289L21.8787 4.87868L21.8787 4.87868L23.2929 6.29289ZM24.7071 6.29289L26.1213 4.87868L26.1213 4.87868L24.7071 6.29289ZM24.7071 7.70711L23.2929 6.29289L23.2929 6.29289L24.7071 7.70711ZM22.9142 9.5L21.5 8.08579C20.719 8.86684 20.719 10.1332 21.5 10.9142L22.9142 9.5ZM24.7071 11.2929L23.2929 12.7071L23.2929 12.7071L24.7071 11.2929ZM24.7071 12.7071L26.1213 14.1213L26.1213 14.1213L24.7071 12.7071ZM23.2929 12.7071L21.8787 14.1213L21.8787 14.1213L23.2929 12.7071ZM21.5 10.9142L22.9142 9.5C22.1332 8.71895 20.8668 8.71895 20.0858 9.5L21.5 10.9142ZM19.7071 12.7071L21.1213 14.1213L21.1213 14.1213L19.7071 12.7071ZM18.2929 12.7071L16.8787 14.1213L16.8787 14.1213L18.2929 12.7071ZM18.2929 11.2929L19.7071 12.7071L19.7071 12.7071L18.2929 11.2929ZM20.0858 9.5L21.5 10.9142C22.281 10.1332 22.281 8.86684 21.5 8.08579L20.0858 9.5ZM18.2929 7.70711L19.7071 6.29289L19.7071 6.29289L18.2929 7.70711ZM9.5 12C12.8137 12 15.5 9.31371 15.5 6H11.5C11.5 7.10457 10.6046 8 9.5 8V12ZM3.5 6C3.5 9.31371 6.18629 12 9.5 12V8C8.39543 8 7.5 7.10457 7.5 6H3.5ZM9.5 0C6.18629 0 3.5 2.68629 3.5 6H7.5C7.5 4.89543 8.39543 4 9.5 4V0ZM15.5 6C15.5 2.68629 12.8137 0 9.5 0V4C10.6046 4 11.5 4.89543 11.5 6H15.5ZM19 20V18H15V20H19ZM2 22H17V18H2V22ZM0 18V20H4V18H0ZM1.75736 13.7574C0.632141 14.8826 0 16.4087 0 18H4C4 17.4696 4.21071 16.9609 4.58579 16.5858L1.75736 13.7574ZM6 12C4.4087 12 2.88258 12.6321 1.75736 13.7574L4.58579 16.5858C4.96086 16.2107 5.46957 16 6 16V12ZM13 12H6V16H13V12ZM17.2426 13.7574C16.1174 12.6321 14.5913 12 13 12V16C13.5304 16 14.0391 16.2107 14.4142 16.5858L17.2426 13.7574ZM19 18C19 16.4087 18.3679 14.8826 17.2426 13.7574L14.4142 16.5858C14.7893 16.9609 15 17.4696 15 18H19ZM21.1213 4.87868C19.9497 3.70711 18.0503 3.70711 16.8787 4.87868L19.7071 7.70711C19.3166 8.09763 18.6834 8.09763 18.2929 7.70711L21.1213 4.87868ZM22.9142 6.67157L21.1213 4.87868L18.2929 7.70711L20.0858 9.5L22.9142 6.67157ZM22.9142 9.5L24.7071 7.70711L21.8787 4.87868L20.0858 6.67157L22.9142 9.5ZM24.7071 7.70711C24.3166 8.09763 23.6834 8.09763 23.2929 7.70711L26.1213 4.87868C24.9497 3.70711 23.0503 3.70711 21.8787 4.87868L24.7071 7.70711ZM23.2929 7.70711C22.9024 7.31658 22.9024 6.68342 23.2929 6.29289L26.1213 9.12132C27.2929 7.94975 27.2929 6.05025 26.1213 4.87868L23.2929 7.70711ZM23.2929 6.29289L21.5 8.08579L24.3284 10.9142L26.1213 9.12132L23.2929 6.29289ZM26.1213 9.87868L24.3284 8.08579L21.5 10.9142L23.2929 12.7071L26.1213 9.87868ZM26.1213 14.1213C27.2929 12.9497 27.2929 11.0503 26.1213 9.87868L23.2929 12.7071C22.9024 12.3166 22.9024 11.6834 23.2929 11.2929L26.1213 14.1213ZM21.8787 14.1213C23.0503 15.2929 24.9497 15.2929 26.1213 14.1213L23.2929 11.2929C23.6834 10.9024 24.3166 10.9024 24.7071 11.2929L21.8787 14.1213ZM20.0858 12.3284L21.8787 14.1213L24.7071 11.2929L22.9142 9.5L20.0858 12.3284ZM20.0858 9.5L18.2929 11.2929L21.1213 14.1213L22.9142 12.3284L20.0858 9.5ZM18.2929 11.2929C18.6834 10.9024 19.3166 10.9024 19.7071 11.2929L16.8787 14.1213C18.0503 15.2929 19.9497 15.2929 21.1213 14.1213L18.2929 11.2929ZM19.7071 11.2929C20.0976 11.6834 20.0976 12.3166 19.7071 12.7071L16.8787 9.87868C15.7071 11.0503 15.7071 12.9497 16.8787 14.1213L19.7071 11.2929ZM19.7071 12.7071L21.5 10.9142L18.6716 8.08579L16.8787 9.87868L19.7071 12.7071ZM16.8787 9.12132L18.6716 10.9142L21.5 8.08579L19.7071 6.29289L16.8787 9.12132ZM16.8787 4.87868C15.7071 6.05025 15.7071 7.94975 16.8787 9.12132L19.7071 6.29289C20.0976 6.68342 20.0976 7.31658 19.7071 7.70711L16.8787 4.87868Z" fill="white" mask="url(#path-1-outside-1_5024_6273)"/>
</svg>
