<svg width="27" height="23" viewBox="0 0 27 23" fill="none" xmlns="http://www.w3.org/2000/svg">
<path d="M11.1564 2.58309L1.31152 18.4906C1.10855 18.8308 1.00115 19.2165 1.00001 19.6094C0.998873 20.0023 1.10404 20.3886 1.30505 20.7299C1.50605 21.0712 1.79589 21.3557 2.14573 21.5549C2.49557 21.7542 2.89321 21.8613 3.29909 21.8656H22.9888C23.3947 21.8613 23.7923 21.7542 24.1422 21.5549C24.492 21.3557 24.7818 21.0712 24.9828 20.7299C25.1839 20.3886 25.289 20.0023 25.2879 19.6094C25.2867 19.2165 25.1793 18.8308 24.9764 18.4906L15.1315 2.58309C14.9243 2.25246 14.6326 1.9791 14.2844 1.78938C13.9363 1.59967 13.5435 1.5 13.1439 1.5C12.7444 1.5 12.3516 1.59967 12.0035 1.78938C11.6553 1.9791 11.3636 2.25246 11.1564 2.58309Z" fill="#B3261E" stroke="white" stroke-width="2" stroke-linecap="round" stroke-linejoin="round"/>
<path d="M13.1436 8.36523V12.8652" stroke="white" stroke-width="2" stroke-linecap="round" stroke-linejoin="round"/>
<path d="M13.1436 17.3652H13.1535" stroke="white" stroke-width="2" stroke-linecap="round" stroke-linejoin="round"/>
</svg>
